<mxfile host="app.diagrams.net" modified="2023-10-11T14:15:35.826Z" agent="Mozilla/5.0 (X11; Linux x86_64; rv:109.0) Gecko/20100101 Firefox/118.0" etag="NtjeUaMThfINaiT3OcQ_" version="22.0.4" type="device">
  <diagram id="C5RBs43oDa-KdzZeNtuy" name="Page-1">
    <mxGraphModel dx="794" dy="404" grid="1" gridSize="10" guides="1" tooltips="1" connect="1" arrows="1" fold="1" page="1" pageScale="1" pageWidth="827" pageHeight="1169" math="0" shadow="0">
      <root>
        <mxCell id="WIyWlLk6GJQsqaUBKTNV-0" />
        <mxCell id="WIyWlLk6GJQsqaUBKTNV-1" parent="WIyWlLk6GJQsqaUBKTNV-0" />
        <mxCell id="VgKAcMuUJRg5ttzXnA3y-2" style="edgeStyle=orthogonalEdgeStyle;rounded=0;orthogonalLoop=1;jettySize=auto;html=1;exitX=0.5;exitY=1;exitDx=0;exitDy=0;exitPerimeter=0;entryX=0.5;entryY=0;entryDx=0;entryDy=0;" edge="1" parent="WIyWlLk6GJQsqaUBKTNV-1" source="VgKAcMuUJRg5ttzXnA3y-0" target="VgKAcMuUJRg5ttzXnA3y-1">
          <mxGeometry relative="1" as="geometry" />
        </mxCell>
        <mxCell id="VgKAcMuUJRg5ttzXnA3y-0" value="START" style="strokeWidth=2;html=1;shape=mxgraph.flowchart.start_1;whiteSpace=wrap;" vertex="1" parent="WIyWlLk6GJQsqaUBKTNV-1">
          <mxGeometry x="100" y="80" width="100" height="60" as="geometry" />
        </mxCell>
        <mxCell id="VgKAcMuUJRg5ttzXnA3y-22" style="edgeStyle=orthogonalEdgeStyle;rounded=0;orthogonalLoop=1;jettySize=auto;html=1;exitX=0.5;exitY=1;exitDx=0;exitDy=0;" edge="1" parent="WIyWlLk6GJQsqaUBKTNV-1" source="VgKAcMuUJRg5ttzXnA3y-1" target="VgKAcMuUJRg5ttzXnA3y-11">
          <mxGeometry relative="1" as="geometry" />
        </mxCell>
        <mxCell id="VgKAcMuUJRg5ttzXnA3y-1" value="&lt;div&gt;TR={x&lt;sub&gt;i&lt;/sub&gt;,y&lt;sub&gt;i&lt;/sub&gt;}, &lt;br&gt;&lt;/div&gt;&lt;div&gt;i=1,..,M &lt;br&gt;&lt;/div&gt;&lt;div&gt;the TRAIN set&lt;/div&gt;&lt;div&gt;&lt;br&gt;&lt;/div&gt;" style="shape=parallelogram;html=1;strokeWidth=2;perimeter=parallelogramPerimeter;whiteSpace=wrap;rounded=1;arcSize=12;size=0.23;" vertex="1" parent="WIyWlLk6GJQsqaUBKTNV-1">
          <mxGeometry x="80" y="164" width="140" height="60" as="geometry" />
        </mxCell>
        <mxCell id="VgKAcMuUJRg5ttzXnA3y-10" style="edgeStyle=orthogonalEdgeStyle;rounded=0;orthogonalLoop=1;jettySize=auto;html=1;exitX=0.5;exitY=1;exitDx=0;exitDy=0;entryX=0.5;entryY=0;entryDx=0;entryDy=0;" edge="1" parent="WIyWlLk6GJQsqaUBKTNV-1">
          <mxGeometry relative="1" as="geometry">
            <mxPoint x="148.5" y="500" as="sourcePoint" />
            <mxPoint x="146" y="550" as="targetPoint" />
          </mxGeometry>
        </mxCell>
        <mxCell id="VgKAcMuUJRg5ttzXnA3y-6" value="Initialize&amp;nbsp; centers&amp;nbsp;and variances for the set TR&amp;nbsp; using k-means" style="rounded=1;whiteSpace=wrap;html=1;absoluteArcSize=1;arcSize=14;strokeWidth=2;" vertex="1" parent="WIyWlLk6GJQsqaUBKTNV-1">
          <mxGeometry x="70" y="430" width="155" height="70" as="geometry" />
        </mxCell>
        <mxCell id="VgKAcMuUJRg5ttzXnA3y-24" style="edgeStyle=orthogonalEdgeStyle;rounded=0;orthogonalLoop=1;jettySize=auto;html=1;exitX=1;exitY=0.5;exitDx=0;exitDy=0;entryX=0;entryY=0.5;entryDx=0;entryDy=0;" edge="1" parent="WIyWlLk6GJQsqaUBKTNV-1" source="VgKAcMuUJRg5ttzXnA3y-27" target="VgKAcMuUJRg5ttzXnA3y-23">
          <mxGeometry relative="1" as="geometry" />
        </mxCell>
        <mxCell id="VgKAcMuUJRg5ttzXnA3y-28" style="edgeStyle=orthogonalEdgeStyle;rounded=0;orthogonalLoop=1;jettySize=auto;html=1;exitX=0.5;exitY=1;exitDx=0;exitDy=0;entryX=0.5;entryY=0;entryDx=0;entryDy=0;" edge="1" parent="WIyWlLk6GJQsqaUBKTNV-1" source="VgKAcMuUJRg5ttzXnA3y-9" target="VgKAcMuUJRg5ttzXnA3y-27">
          <mxGeometry relative="1" as="geometry" />
        </mxCell>
        <mxCell id="VgKAcMuUJRg5ttzXnA3y-9" value="Set g={c&lt;sub&gt;1&lt;/sub&gt;,σ&lt;sub&gt;1&lt;/sub&gt;,c&lt;sub&gt;2&lt;/sub&gt;,σ&lt;sub&gt;2&lt;/sub&gt;,..,c&lt;sub&gt;k&lt;/sub&gt;,σ&lt;sub&gt;κ&lt;/sub&gt;,w&lt;sub&gt;1&lt;/sub&gt;,w&lt;sub&gt;2&lt;/sub&gt;,..,w&lt;sub&gt;k&lt;/sub&gt;}" style="rounded=1;whiteSpace=wrap;html=1;absoluteArcSize=1;arcSize=14;strokeWidth=2;" vertex="1" parent="WIyWlLk6GJQsqaUBKTNV-1">
          <mxGeometry x="30" y="550" width="230" height="60" as="geometry" />
        </mxCell>
        <mxCell id="VgKAcMuUJRg5ttzXnA3y-18" style="edgeStyle=orthogonalEdgeStyle;rounded=0;orthogonalLoop=1;jettySize=auto;html=1;exitX=0.5;exitY=1;exitDx=0;exitDy=0;entryX=0.5;entryY=0;entryDx=0;entryDy=0;" edge="1" parent="WIyWlLk6GJQsqaUBKTNV-1" source="VgKAcMuUJRg5ttzXnA3y-11" target="VgKAcMuUJRg5ttzXnA3y-17">
          <mxGeometry relative="1" as="geometry" />
        </mxCell>
        <mxCell id="VgKAcMuUJRg5ttzXnA3y-11" value="&lt;div&gt;Set c&lt;sub&gt;1&lt;/sub&gt;,c&lt;sub&gt;2&lt;/sub&gt;,..,c&lt;sub&gt;k&lt;/sub&gt; &lt;br&gt;&lt;/div&gt;&lt;div&gt;the centers&lt;br&gt;&lt;/div&gt;" style="rounded=1;whiteSpace=wrap;html=1;absoluteArcSize=1;arcSize=14;strokeWidth=2;" vertex="1" parent="WIyWlLk6GJQsqaUBKTNV-1">
          <mxGeometry x="75" y="250" width="150" height="40" as="geometry" />
        </mxCell>
        <mxCell id="VgKAcMuUJRg5ttzXnA3y-20" style="edgeStyle=orthogonalEdgeStyle;rounded=0;orthogonalLoop=1;jettySize=auto;html=1;exitX=0.5;exitY=1;exitDx=0;exitDy=0;entryX=0.5;entryY=0;entryDx=0;entryDy=0;" edge="1" parent="WIyWlLk6GJQsqaUBKTNV-1" source="VgKAcMuUJRg5ttzXnA3y-17" target="VgKAcMuUJRg5ttzXnA3y-19">
          <mxGeometry relative="1" as="geometry" />
        </mxCell>
        <mxCell id="VgKAcMuUJRg5ttzXnA3y-17" value="&lt;div&gt;Set σ&lt;sub&gt;1&lt;/sub&gt;,σ&lt;sub&gt;2&lt;/sub&gt;,..,σ&lt;sub&gt;k&lt;/sub&gt; the&lt;/div&gt;&lt;div&gt;variances&lt;br&gt;&lt;/div&gt;" style="rounded=1;whiteSpace=wrap;html=1;absoluteArcSize=1;arcSize=14;strokeWidth=2;" vertex="1" parent="WIyWlLk6GJQsqaUBKTNV-1">
          <mxGeometry x="75" y="310" width="140" height="40" as="geometry" />
        </mxCell>
        <mxCell id="VgKAcMuUJRg5ttzXnA3y-21" style="edgeStyle=orthogonalEdgeStyle;rounded=0;orthogonalLoop=1;jettySize=auto;html=1;exitX=0.5;exitY=1;exitDx=0;exitDy=0;entryX=0.5;entryY=0;entryDx=0;entryDy=0;" edge="1" parent="WIyWlLk6GJQsqaUBKTNV-1" source="VgKAcMuUJRg5ttzXnA3y-19" target="VgKAcMuUJRg5ttzXnA3y-6">
          <mxGeometry relative="1" as="geometry" />
        </mxCell>
        <mxCell id="VgKAcMuUJRg5ttzXnA3y-19" value="Set w&lt;sub&gt;1&lt;/sub&gt;,w&lt;sub&gt;2&lt;/sub&gt;,..,w&lt;sub&gt;k&lt;/sub&gt; the weights" style="rounded=1;whiteSpace=wrap;html=1;absoluteArcSize=1;arcSize=14;strokeWidth=2;" vertex="1" parent="WIyWlLk6GJQsqaUBKTNV-1">
          <mxGeometry x="92.5" y="363" width="110" height="50" as="geometry" />
        </mxCell>
        <mxCell id="VgKAcMuUJRg5ttzXnA3y-26" style="edgeStyle=orthogonalEdgeStyle;rounded=0;orthogonalLoop=1;jettySize=auto;html=1;exitX=0.5;exitY=1;exitDx=0;exitDy=0;entryX=0.5;entryY=0;entryDx=0;entryDy=0;" edge="1" parent="WIyWlLk6GJQsqaUBKTNV-1" source="VgKAcMuUJRg5ttzXnA3y-23" target="VgKAcMuUJRg5ttzXnA3y-25">
          <mxGeometry relative="1" as="geometry" />
        </mxCell>
        <mxCell id="VgKAcMuUJRg5ttzXnA3y-23" value="Apply the genetic algorithm of first phase to g" style="rounded=1;whiteSpace=wrap;html=1;absoluteArcSize=1;arcSize=14;strokeWidth=2;" vertex="1" parent="WIyWlLk6GJQsqaUBKTNV-1">
          <mxGeometry x="354" y="137" width="176" height="70" as="geometry" />
        </mxCell>
        <mxCell id="VgKAcMuUJRg5ttzXnA3y-30" style="edgeStyle=orthogonalEdgeStyle;rounded=0;orthogonalLoop=1;jettySize=auto;html=1;exitX=0.5;exitY=1;exitDx=0;exitDy=0;entryX=0.5;entryY=0;entryDx=0;entryDy=0;" edge="1" parent="WIyWlLk6GJQsqaUBKTNV-1" source="VgKAcMuUJRg5ttzXnA3y-25" target="VgKAcMuUJRg5ttzXnA3y-29">
          <mxGeometry relative="1" as="geometry" />
        </mxCell>
        <mxCell id="VgKAcMuUJRg5ttzXnA3y-25" value="&lt;div&gt;Obtain the best bounds&amp;nbsp;&lt;/div&gt;&lt;div&gt;S=[L,R] as the best chromosome of the first phase&lt;br&gt; &lt;/div&gt;" style="rounded=1;whiteSpace=wrap;html=1;absoluteArcSize=1;arcSize=14;strokeWidth=2;" vertex="1" parent="WIyWlLk6GJQsqaUBKTNV-1">
          <mxGeometry x="354" y="229" width="176" height="60" as="geometry" />
        </mxCell>
        <mxCell id="VgKAcMuUJRg5ttzXnA3y-27" value="&lt;div&gt;Set N=y(x,g), the RBF for the&lt;/div&gt;&lt;div&gt;parameter set g&lt;br&gt;&lt;/div&gt;" style="rounded=1;whiteSpace=wrap;html=1;absoluteArcSize=1;arcSize=14;strokeWidth=2;" vertex="1" parent="WIyWlLk6GJQsqaUBKTNV-1">
          <mxGeometry x="55" y="640" width="170" height="40" as="geometry" />
        </mxCell>
        <mxCell id="VgKAcMuUJRg5ttzXnA3y-32" style="edgeStyle=orthogonalEdgeStyle;rounded=0;orthogonalLoop=1;jettySize=auto;html=1;exitX=0.5;exitY=1;exitDx=0;exitDy=0;entryX=0.5;entryY=0;entryDx=0;entryDy=0;" edge="1" parent="WIyWlLk6GJQsqaUBKTNV-1" source="VgKAcMuUJRg5ttzXnA3y-29" target="VgKAcMuUJRg5ttzXnA3y-31">
          <mxGeometry relative="1" as="geometry" />
        </mxCell>
        <mxCell id="VgKAcMuUJRg5ttzXnA3y-29" value="Construct randomly g&lt;sub&gt;i&lt;/sub&gt;, i=1,.., N&lt;sub&gt;c&lt;/sub&gt; chromosomes in S" style="rounded=1;whiteSpace=wrap;html=1;absoluteArcSize=1;arcSize=14;strokeWidth=2;" vertex="1" parent="WIyWlLk6GJQsqaUBKTNV-1">
          <mxGeometry x="354" y="310" width="176" height="50" as="geometry" />
        </mxCell>
        <mxCell id="VgKAcMuUJRg5ttzXnA3y-34" style="edgeStyle=orthogonalEdgeStyle;rounded=0;orthogonalLoop=1;jettySize=auto;html=1;exitX=0.5;exitY=1;exitDx=0;exitDy=0;" edge="1" parent="WIyWlLk6GJQsqaUBKTNV-1" source="VgKAcMuUJRg5ttzXnA3y-31" target="VgKAcMuUJRg5ttzXnA3y-33">
          <mxGeometry relative="1" as="geometry" />
        </mxCell>
        <mxCell id="VgKAcMuUJRg5ttzXnA3y-31" value="&lt;div&gt;SET iter=0&lt;/div&gt;" style="rounded=1;whiteSpace=wrap;html=1;absoluteArcSize=1;arcSize=14;strokeWidth=2;" vertex="1" parent="WIyWlLk6GJQsqaUBKTNV-1">
          <mxGeometry x="359" y="382" width="166" height="37" as="geometry" />
        </mxCell>
        <mxCell id="VgKAcMuUJRg5ttzXnA3y-36" style="edgeStyle=orthogonalEdgeStyle;rounded=0;orthogonalLoop=1;jettySize=auto;html=1;exitX=0.5;exitY=1;exitDx=0;exitDy=0;entryX=0.5;entryY=0;entryDx=0;entryDy=0;" edge="1" parent="WIyWlLk6GJQsqaUBKTNV-1" source="VgKAcMuUJRg5ttzXnA3y-33" target="VgKAcMuUJRg5ttzXnA3y-35">
          <mxGeometry relative="1" as="geometry" />
        </mxCell>
        <mxCell id="VgKAcMuUJRg5ttzXnA3y-33" value="Calculate f&lt;sub&gt;i&lt;/sub&gt;=train error(g&lt;sub&gt;i&lt;/sub&gt;) on TR, i=1,..,N&lt;sub&gt;c&lt;/sub&gt;" style="rounded=1;whiteSpace=wrap;html=1;absoluteArcSize=1;arcSize=14;strokeWidth=2;" vertex="1" parent="WIyWlLk6GJQsqaUBKTNV-1">
          <mxGeometry x="359" y="440" width="166" height="40" as="geometry" />
        </mxCell>
        <mxCell id="VgKAcMuUJRg5ttzXnA3y-38" style="edgeStyle=orthogonalEdgeStyle;rounded=0;orthogonalLoop=1;jettySize=auto;html=1;exitX=0.5;exitY=1;exitDx=0;exitDy=0;entryX=0.5;entryY=0;entryDx=0;entryDy=0;" edge="1" parent="WIyWlLk6GJQsqaUBKTNV-1" source="VgKAcMuUJRg5ttzXnA3y-35" target="VgKAcMuUJRg5ttzXnA3y-37">
          <mxGeometry relative="1" as="geometry" />
        </mxCell>
        <mxCell id="VgKAcMuUJRg5ttzXnA3y-35" value="Apply crossover on chromosomes g&lt;sub&gt;i&lt;/sub&gt;, i=1,..,N&lt;sub&gt;c&lt;/sub&gt;" style="rounded=1;whiteSpace=wrap;html=1;absoluteArcSize=1;arcSize=14;strokeWidth=2;" vertex="1" parent="WIyWlLk6GJQsqaUBKTNV-1">
          <mxGeometry x="354" y="503" width="176" height="40" as="geometry" />
        </mxCell>
        <mxCell id="VgKAcMuUJRg5ttzXnA3y-40" style="edgeStyle=orthogonalEdgeStyle;rounded=0;orthogonalLoop=1;jettySize=auto;html=1;exitX=0.5;exitY=1;exitDx=0;exitDy=0;entryX=0.5;entryY=0;entryDx=0;entryDy=0;" edge="1" parent="WIyWlLk6GJQsqaUBKTNV-1" source="VgKAcMuUJRg5ttzXnA3y-37" target="VgKAcMuUJRg5ttzXnA3y-39">
          <mxGeometry relative="1" as="geometry" />
        </mxCell>
        <mxCell id="VgKAcMuUJRg5ttzXnA3y-37" value="Apply mutation on chromosomes g&lt;sub&gt;i&lt;/sub&gt;, i=1,..,N&lt;sub&gt;c&lt;/sub&gt;" style="rounded=1;whiteSpace=wrap;html=1;absoluteArcSize=1;arcSize=14;strokeWidth=2;" vertex="1" parent="WIyWlLk6GJQsqaUBKTNV-1">
          <mxGeometry x="354" y="563" width="176" height="40" as="geometry" />
        </mxCell>
        <mxCell id="VgKAcMuUJRg5ttzXnA3y-44" style="edgeStyle=orthogonalEdgeStyle;rounded=0;orthogonalLoop=1;jettySize=auto;html=1;exitX=0.5;exitY=1;exitDx=0;exitDy=0;" edge="1" parent="WIyWlLk6GJQsqaUBKTNV-1" source="VgKAcMuUJRg5ttzXnA3y-39" target="VgKAcMuUJRg5ttzXnA3y-41">
          <mxGeometry relative="1" as="geometry" />
        </mxCell>
        <mxCell id="VgKAcMuUJRg5ttzXnA3y-39" value="&lt;div&gt;SET iter=iter+1&lt;/div&gt;" style="rounded=1;whiteSpace=wrap;html=1;absoluteArcSize=1;arcSize=14;strokeWidth=2;" vertex="1" parent="WIyWlLk6GJQsqaUBKTNV-1">
          <mxGeometry x="359" y="622" width="166" height="37" as="geometry" />
        </mxCell>
        <mxCell id="VgKAcMuUJRg5ttzXnA3y-43" style="edgeStyle=orthogonalEdgeStyle;rounded=0;orthogonalLoop=1;jettySize=auto;html=1;exitX=1;exitY=0.5;exitDx=0;exitDy=0;exitPerimeter=0;entryX=1;entryY=0.25;entryDx=0;entryDy=0;" edge="1" parent="WIyWlLk6GJQsqaUBKTNV-1" source="VgKAcMuUJRg5ttzXnA3y-41" target="VgKAcMuUJRg5ttzXnA3y-33">
          <mxGeometry relative="1" as="geometry">
            <Array as="points">
              <mxPoint x="580" y="715" />
              <mxPoint x="580" y="450" />
            </Array>
          </mxGeometry>
        </mxCell>
        <mxCell id="VgKAcMuUJRg5ttzXnA3y-45" value="NO" style="edgeLabel;html=1;align=center;verticalAlign=middle;resizable=0;points=[];" vertex="1" connectable="0" parent="VgKAcMuUJRg5ttzXnA3y-43">
          <mxGeometry x="-0.715" y="-2" relative="1" as="geometry">
            <mxPoint x="-37" y="-12" as="offset" />
          </mxGeometry>
        </mxCell>
        <mxCell id="VgKAcMuUJRg5ttzXnA3y-48" style="edgeStyle=orthogonalEdgeStyle;rounded=0;orthogonalLoop=1;jettySize=auto;html=1;exitX=0;exitY=0.5;exitDx=0;exitDy=0;exitPerimeter=0;entryX=0;entryY=0.5;entryDx=0;entryDy=0;" edge="1" parent="WIyWlLk6GJQsqaUBKTNV-1" source="VgKAcMuUJRg5ttzXnA3y-41" target="VgKAcMuUJRg5ttzXnA3y-46">
          <mxGeometry relative="1" as="geometry">
            <Array as="points">
              <mxPoint x="340" y="726" />
              <mxPoint x="340" y="800" />
            </Array>
          </mxGeometry>
        </mxCell>
        <mxCell id="VgKAcMuUJRg5ttzXnA3y-41" value="iter&amp;gt;N&lt;sub&gt;g&lt;/sub&gt;" style="strokeWidth=2;html=1;shape=mxgraph.flowchart.decision;whiteSpace=wrap;" vertex="1" parent="WIyWlLk6GJQsqaUBKTNV-1">
          <mxGeometry x="394" y="691" width="96" height="70" as="geometry" />
        </mxCell>
        <mxCell id="VgKAcMuUJRg5ttzXnA3y-51" style="edgeStyle=orthogonalEdgeStyle;rounded=0;orthogonalLoop=1;jettySize=auto;html=1;exitX=0.5;exitY=1;exitDx=0;exitDy=0;entryX=0.5;entryY=0;entryDx=0;entryDy=0;" edge="1" parent="WIyWlLk6GJQsqaUBKTNV-1" source="VgKAcMuUJRg5ttzXnA3y-46" target="VgKAcMuUJRg5ttzXnA3y-50">
          <mxGeometry relative="1" as="geometry" />
        </mxCell>
        <mxCell id="VgKAcMuUJRg5ttzXnA3y-46" value="Obtain g* chromosome with the lowest fitness value f*" style="rounded=1;whiteSpace=wrap;html=1;absoluteArcSize=1;arcSize=14;strokeWidth=2;" vertex="1" parent="WIyWlLk6GJQsqaUBKTNV-1">
          <mxGeometry x="370" y="780" width="170" height="40" as="geometry" />
        </mxCell>
        <mxCell id="VgKAcMuUJRg5ttzXnA3y-49" value="YES" style="text;html=1;align=center;verticalAlign=middle;resizable=0;points=[];autosize=1;strokeColor=none;fillColor=none;" vertex="1" parent="WIyWlLk6GJQsqaUBKTNV-1">
          <mxGeometry x="336" y="704" width="50" height="30" as="geometry" />
        </mxCell>
        <mxCell id="VgKAcMuUJRg5ttzXnA3y-56" style="edgeStyle=orthogonalEdgeStyle;rounded=0;orthogonalLoop=1;jettySize=auto;html=1;exitX=0.5;exitY=1;exitDx=0;exitDy=0;entryX=0.5;entryY=0;entryDx=0;entryDy=0;" edge="1" parent="WIyWlLk6GJQsqaUBKTNV-1" source="VgKAcMuUJRg5ttzXnA3y-50" target="VgKAcMuUJRg5ttzXnA3y-52">
          <mxGeometry relative="1" as="geometry" />
        </mxCell>
        <mxCell id="VgKAcMuUJRg5ttzXnA3y-50" value="Set N*=y(x,g*) the corresponding RBF network" style="rounded=1;whiteSpace=wrap;html=1;absoluteArcSize=1;arcSize=14;strokeWidth=2;" vertex="1" parent="WIyWlLk6GJQsqaUBKTNV-1">
          <mxGeometry x="359" y="840" width="190" height="40" as="geometry" />
        </mxCell>
        <mxCell id="VgKAcMuUJRg5ttzXnA3y-52" value="Apply N* on test set and report the test error" style="rounded=1;whiteSpace=wrap;html=1;absoluteArcSize=1;arcSize=14;strokeWidth=2;" vertex="1" parent="WIyWlLk6GJQsqaUBKTNV-1">
          <mxGeometry x="359.5" y="900" width="191" height="40" as="geometry" />
        </mxCell>
        <mxCell id="VgKAcMuUJRg5ttzXnA3y-55" value="TERMINATE" style="strokeWidth=2;html=1;shape=mxgraph.flowchart.start_1;whiteSpace=wrap;" vertex="1" parent="WIyWlLk6GJQsqaUBKTNV-1">
          <mxGeometry x="386" y="970" width="124" height="40" as="geometry" />
        </mxCell>
        <mxCell id="VgKAcMuUJRg5ttzXnA3y-57" style="edgeStyle=orthogonalEdgeStyle;rounded=0;orthogonalLoop=1;jettySize=auto;html=1;exitX=0.5;exitY=1;exitDx=0;exitDy=0;entryX=0.5;entryY=0;entryDx=0;entryDy=0;entryPerimeter=0;" edge="1" parent="WIyWlLk6GJQsqaUBKTNV-1" source="VgKAcMuUJRg5ttzXnA3y-52" target="VgKAcMuUJRg5ttzXnA3y-55">
          <mxGeometry relative="1" as="geometry" />
        </mxCell>
      </root>
    </mxGraphModel>
  </diagram>
</mxfile>
